<mxfile host="app.diagrams.net" modified="2021-01-09T05:37:05.564Z" agent="5.0 (X11; Linux x86_64) AppleWebKit/537.36 (KHTML, like Gecko) Chrome/87.0.4280.88 Safari/537.36" etag="a-SRv41EG6123QhIg5p7" version="14.1.8" type="github">
  <diagram id="gDX9-7MmOcgjLYzr4QKp" name="Page-1">
    <mxGraphModel dx="744" dy="357" grid="1" gridSize="10" guides="1" tooltips="1" connect="1" arrows="1" fold="1" page="1" pageScale="1" pageWidth="850" pageHeight="1100" math="0" shadow="0">
      <root>
        <mxCell id="0" />
        <mxCell id="1" parent="0" />
        <mxCell id="lmdC3XeZ3pxhXAZLQzcP-1" value="1.1 Capture each frame of video" style="ellipse;whiteSpace=wrap;html=1;aspect=fixed;" vertex="1" parent="1">
          <mxGeometry x="230" y="90" width="80" height="80" as="geometry" />
        </mxCell>
        <mxCell id="lmdC3XeZ3pxhXAZLQzcP-2" value="" style="endArrow=classic;html=1;entryX=0;entryY=0.5;entryDx=0;entryDy=0;" edge="1" parent="1" target="lmdC3XeZ3pxhXAZLQzcP-1">
          <mxGeometry width="50" height="50" relative="1" as="geometry">
            <mxPoint x="130" y="130" as="sourcePoint" />
            <mxPoint x="140" y="100" as="targetPoint" />
          </mxGeometry>
        </mxCell>
        <mxCell id="lmdC3XeZ3pxhXAZLQzcP-3" value="Fetch video input" style="text;html=1;align=center;verticalAlign=middle;resizable=0;points=[];autosize=1;" vertex="1" parent="1">
          <mxGeometry x="120" y="100" width="110" height="20" as="geometry" />
        </mxCell>
        <mxCell id="lmdC3XeZ3pxhXAZLQzcP-4" value="1.2&lt;br&gt;Find region of interest" style="ellipse;whiteSpace=wrap;html=1;aspect=fixed;" vertex="1" parent="1">
          <mxGeometry x="385" y="90" width="80" height="80" as="geometry" />
        </mxCell>
        <mxCell id="lmdC3XeZ3pxhXAZLQzcP-5" value="1.3&lt;br&gt;Compute EAR and MAR" style="ellipse;whiteSpace=wrap;html=1;aspect=fixed;" vertex="1" parent="1">
          <mxGeometry x="570" y="90" width="80" height="80" as="geometry" />
        </mxCell>
        <mxCell id="lmdC3XeZ3pxhXAZLQzcP-7" value="1.4&lt;br&gt;Check Threshold Condition" style="ellipse;whiteSpace=wrap;html=1;aspect=fixed;" vertex="1" parent="1">
          <mxGeometry x="570" y="230" width="80" height="80" as="geometry" />
        </mxCell>
        <mxCell id="lmdC3XeZ3pxhXAZLQzcP-8" value="" style="endArrow=classic;html=1;" edge="1" parent="1" source="lmdC3XeZ3pxhXAZLQzcP-7">
          <mxGeometry width="50" height="50" relative="1" as="geometry">
            <mxPoint x="440" y="320" as="sourcePoint" />
            <mxPoint x="490" y="270" as="targetPoint" />
          </mxGeometry>
        </mxCell>
        <mxCell id="lmdC3XeZ3pxhXAZLQzcP-9" value="" style="endArrow=classic;html=1;exitX=0.5;exitY=1;exitDx=0;exitDy=0;entryX=0.5;entryY=0;entryDx=0;entryDy=0;" edge="1" parent="1" source="lmdC3XeZ3pxhXAZLQzcP-5" target="lmdC3XeZ3pxhXAZLQzcP-7">
          <mxGeometry width="50" height="50" relative="1" as="geometry">
            <mxPoint x="430" y="230" as="sourcePoint" />
            <mxPoint x="480" y="180" as="targetPoint" />
          </mxGeometry>
        </mxCell>
        <mxCell id="lmdC3XeZ3pxhXAZLQzcP-10" value="" style="endArrow=classic;html=1;exitX=1;exitY=0.5;exitDx=0;exitDy=0;entryX=0;entryY=0.5;entryDx=0;entryDy=0;" edge="1" parent="1" source="lmdC3XeZ3pxhXAZLQzcP-1" target="lmdC3XeZ3pxhXAZLQzcP-4">
          <mxGeometry width="50" height="50" relative="1" as="geometry">
            <mxPoint x="310" y="240" as="sourcePoint" />
            <mxPoint x="360" y="190" as="targetPoint" />
          </mxGeometry>
        </mxCell>
        <mxCell id="lmdC3XeZ3pxhXAZLQzcP-11" value="" style="endArrow=classic;html=1;exitX=1;exitY=0.5;exitDx=0;exitDy=0;entryX=0;entryY=0.5;entryDx=0;entryDy=0;" edge="1" parent="1" source="lmdC3XeZ3pxhXAZLQzcP-4" target="lmdC3XeZ3pxhXAZLQzcP-5">
          <mxGeometry width="50" height="50" relative="1" as="geometry">
            <mxPoint x="320" y="140" as="sourcePoint" />
            <mxPoint x="395" y="140" as="targetPoint" />
          </mxGeometry>
        </mxCell>
        <mxCell id="lmdC3XeZ3pxhXAZLQzcP-12" value="frame" style="text;html=1;strokeColor=none;fillColor=none;align=center;verticalAlign=middle;whiteSpace=wrap;rounded=0;" vertex="1" parent="1">
          <mxGeometry x="330" y="100" width="40" height="20" as="geometry" />
        </mxCell>
        <mxCell id="lmdC3XeZ3pxhXAZLQzcP-13" value="eye region &amp;amp; mouth region data points" style="text;html=1;strokeColor=none;fillColor=none;align=center;verticalAlign=middle;whiteSpace=wrap;rounded=0;" vertex="1" parent="1">
          <mxGeometry x="480" y="90" width="80" height="20" as="geometry" />
        </mxCell>
        <mxCell id="lmdC3XeZ3pxhXAZLQzcP-14" value="fetch EAR and MAR value" style="text;html=1;strokeColor=none;fillColor=none;align=center;verticalAlign=middle;whiteSpace=wrap;rounded=0;" vertex="1" parent="1">
          <mxGeometry x="620" y="190" width="70" height="20" as="geometry" />
        </mxCell>
        <mxCell id="lmdC3XeZ3pxhXAZLQzcP-15" value="Store drowsiness status in db" style="text;html=1;strokeColor=none;fillColor=none;align=center;verticalAlign=middle;whiteSpace=wrap;rounded=0;" vertex="1" parent="1">
          <mxGeometry x="480" y="240" width="100" height="20" as="geometry" />
        </mxCell>
      </root>
    </mxGraphModel>
  </diagram>
</mxfile>
